<svg width="118" height="22" viewBox="0 0 118 22" fill="none" xmlns="http://www.w3.org/2000/svg">
<path d="M11 0L13.4697 7.5267H21.4616L14.996 12.1785L17.4656 19.7052L11 15.0534L4.53436 19.7052L7.00402 12.1785L0.538379 7.5267H8.53035L11 0Z" fill="#FFCB5A"/>
<path d="M35 0L37.4697 7.5267H45.4616L38.996 12.1785L41.4656 19.7052L35 15.0534L28.5344 19.7052L31.004 12.1785L24.5384 7.5267H32.5303L35 0Z" fill="#FFCB5A"/>
<path d="M59 0L61.4697 7.5267H69.4616L62.996 12.1785L65.4656 19.7052L59 15.0534L52.5344 19.7052L55.004 12.1785L48.5384 7.5267H56.5303L59 0Z" fill="#FFCB5A"/>
<path d="M83 0L85.4697 7.5267H93.4616L86.996 12.1785L89.4656 19.7052L83 15.0534L76.5344 19.7052L79.004 12.1785L72.5384 7.5267H80.5303L83 0Z" fill="#FFCB5A"/>
<path d="M107 0L109.47 7.5267H117.462L110.996 12.1785L113.466 19.7052L107 15.0534L100.534 19.7052L103.004 12.1785L96.5384 7.5267H104.53L107 0Z" fill="#FFCB5A"/>
</svg>
