<svg width="31" height="26" viewBox="0 0 31 26" fill="none" xmlns="http://www.w3.org/2000/svg">
<path fill-rule="evenodd" clip-rule="evenodd" d="M19.802 25.7667C26.4528 21.4702 30.1476 16.469 30.8866 10.7634C32.0375 1.8815 24.1413 -2.46572 20.1403 1.43994C16.1392 5.34558 18.5372 10.3041 21.4342 11.6598C24.3312 13.0156 26.103 12.543 25.7939 14.3545C25.4847 16.1661 21.3636 21.1867 17.7423 23.5252C17.6142 23.635 17.5324 23.7899 17.5137 23.9582C17.495 24.1266 17.5407 24.2957 17.6416 24.4314L18.5372 25.6033C18.9258 26.1115 19.2986 26.0919 19.802 25.7676M2.29097 25.7667C8.94174 21.4702 12.6366 16.469 13.3756 10.7634C14.5273 1.8815 6.63119 -2.46572 2.63013 1.43994C-1.37093 5.34558 1.02706 10.3041 3.92496 11.6598C6.82285 13.0156 8.59374 12.543 8.28461 14.3545C7.97548 16.1661 3.85341 21.1867 0.232147 23.5252C0.104139 23.6352 0.0225735 23.7901 0.00403404 23.9584C-0.0145054 24.1267 0.0313721 24.2959 0.132339 24.4314L1.02706 25.6033C1.41568 26.1115 1.78841 26.0919 2.29097 25.7676" fill="#8EB1A6"/>
</svg>
