<svg width="133" height="25" viewBox="0 0 133 25" fill="none" xmlns="http://www.w3.org/2000/svg">
<path d="M4.94063 24.5417L7.03958 15.4677L0 9.36458L9.3 8.55729L12.9167 0L16.5333 8.55729L25.8333 9.36458L18.7938 15.4677L20.8927 24.5417L12.9167 19.7302L4.94063 24.5417Z" fill="#FECB13"/>
<path d="M33.7727 24.5417L35.8716 15.4677L28.832 9.36458L38.132 8.55729L41.7487 0L45.3654 8.55729L54.6654 9.36458L47.6258 15.4677L49.7247 24.5417L41.7487 19.7302L33.7727 24.5417Z" fill="#FECB13"/>
<path d="M62.6086 24.5417L64.7076 15.4677L57.668 9.36458L66.968 8.55729L70.5846 0L74.2013 8.55729L83.5013 9.36458L76.4617 15.4677L78.5607 24.5417L70.5846 19.7302L62.6086 24.5417Z" fill="#FECB13"/>
<path d="M91.4406 24.5417L93.5396 15.4677L86.5 9.36458L95.8 8.55729L99.4167 0L103.033 8.55729L112.333 9.36458L105.294 15.4677L107.393 24.5417L99.4167 19.7302L91.4406 24.5417Z" fill="#FECB13"/>
<path d="M131.533 8.55762L133 8.68457V22.7969L127.917 19.7305L119.94 24.542L122.04 15.4678L115 9.36426L124.3 8.55762L127.917 0L131.533 8.55762Z" fill="url(#paint0_linear_2030_19)"/>
<defs>
<linearGradient id="paint0_linear_2030_19" x1="140.458" y1="12.0002" x2="114.667" y2="12.0002" gradientUnits="userSpaceOnUse">
<stop stop-color="#FECB13"/>
<stop offset="0.765" stop-color="#FECB13"/>
</linearGradient>
</defs>
</svg>
