<svg width="31" height="26" viewBox="0 0 31 26" fill="none" xmlns="http://www.w3.org/2000/svg">
<path fill-rule="evenodd" clip-rule="evenodd" d="M11.198 0.232765C4.54723 4.52933 0.852354 9.53045 0.11338 15.2361C-1.03748 24.118 6.85865 28.4652 10.8597 24.5596C14.8608 20.6539 12.4628 15.6954 9.56577 14.3397C6.66876 12.9839 4.89699 13.4565 5.20612 11.645C5.51525 9.83341 9.63643 4.81275 13.2577 2.47434C13.3858 2.36445 13.4676 2.2096 13.4863 2.04126C13.505 1.87293 13.4593 1.70375 13.3584 1.56811L12.4628 0.396241C12.0742 -0.111955 11.7014 -0.0915207 11.198 0.232765ZM28.709 0.232765C22.0583 4.52933 18.3634 9.53045 17.6244 15.2361C16.4727 24.118 24.3688 28.4652 28.3699 24.5596C32.3709 20.6539 29.9729 15.6954 27.075 14.3397C24.1772 12.9839 22.4063 13.4565 22.7154 11.645C23.0245 9.83341 27.1466 4.81275 30.7679 2.47434C30.8959 2.36433 30.9774 2.20942 30.996 2.04109C31.0145 1.87276 30.9686 1.70364 30.8677 1.56811L29.9729 0.396241C29.5843 -0.111955 29.2116 -0.0915207 28.709 0.232765Z" fill="#8EB1A6"/>
</svg>
